<svg width="51" height="51" viewBox="0 0 51 51" fill="none" xmlns="http://www.w3.org/2000/svg">
<path d="M9.43066 25.4063C12.3242 25.4063 14.6699 23.0606 14.6699 20.167C14.6699 17.2734 12.3242 14.9277 9.43066 14.9277C6.5371 14.9277 4.19141 17.2734 4.19141 20.167C4.19141 23.0606 6.5371 25.4063 9.43066 25.4063Z" fill="#454444" fill-opacity="0.3"/>
<path d="M18.8613 17.0234C21.7549 17.0234 24.1006 14.6777 24.1006 11.7842C24.1006 8.89062 21.7549 6.54492 18.8613 6.54492C15.9678 6.54492 13.6221 8.89062 13.6221 11.7842C13.6221 14.6777 15.9678 17.0234 18.8613 17.0234Z" fill="#454444" fill-opacity="0.3"/>
<path d="M31.4355 17.0234C34.3291 17.0234 36.6748 14.6777 36.6748 11.7842C36.6748 8.89062 34.3291 6.54492 31.4355 6.54492C28.542 6.54492 26.1963 8.89062 26.1963 11.7842C26.1963 14.6777 28.542 17.0234 31.4355 17.0234Z" fill="#454444" fill-opacity="0.3"/>
<path d="M40.8662 25.4063C43.7598 25.4063 46.1055 23.0606 46.1055 20.167C46.1055 17.2734 43.7598 14.9277 40.8662 14.9277C37.9726 14.9277 35.627 17.2734 35.627 20.167C35.627 23.0606 37.9726 25.4063 40.8662 25.4063Z" fill="#454444" fill-opacity="0.3"/>
<path d="M36.3394 31.4C34.5162 29.2623 32.9863 27.4391 31.1421 25.3015C30.1781 24.1698 28.9416 23.0381 27.4746 22.5351C27.2441 22.4513 27.0135 22.3884 26.783 22.3465C26.2591 22.2627 25.6933 22.2627 25.1484 22.2627C24.6035 22.2627 24.0376 22.2627 23.4928 22.3675C23.2622 22.4094 23.0317 22.4723 22.8012 22.5561C21.3342 23.0591 20.1187 24.1907 19.1337 25.3224C17.3104 27.46 15.7806 29.2833 13.9364 31.4209C11.191 34.1663 7.8169 37.2051 8.44562 41.4593C9.05337 43.597 10.5832 45.7136 13.3286 46.3214C14.8585 46.6357 19.7415 45.3993 24.9388 45.3993H25.316C30.5134 45.3993 35.3964 46.6148 36.9262 46.3214C39.6716 45.7136 41.2015 43.576 41.8092 41.4593C42.4589 37.1841 39.0848 34.1453 36.3394 31.4Z" fill="#454444" fill-opacity="0.3"/>
</svg>
