<svg width="68" height="31" viewBox="0 0 68 31" fill="none" xmlns="http://www.w3.org/2000/svg">
<path d="M38.8333 7.92299C39.2334 7.92299 39.524 7.83652 39.705 7.66357C39.8955 7.49062 39.9908 7.17354 39.9908 6.71233C39.9908 6.34721 39.9098 6.05896 39.7479 5.84757C39.5859 5.63619 39.2811 5.5305 38.8333 5.5305C38.4046 5.5305 38.1045 5.63619 37.933 5.84757C37.7615 6.05896 37.6758 6.34721 37.6758 6.71233C37.6758 7.17354 37.7758 7.49062 37.9759 7.66357C38.1855 7.83652 38.4713 7.92299 38.8333 7.92299ZM38.819 9.14807C38.0378 9.14807 37.4424 8.93188 37.0327 8.4995C36.6326 8.06712 36.4325 7.4762 36.4325 6.72674C36.4325 6.41927 36.4754 6.12141 36.5611 5.83316C36.6469 5.5353 36.785 5.27587 36.9755 5.05488C37.1661 4.82428 37.4138 4.64172 37.7186 4.5072C38.0235 4.37268 38.3951 4.30542 38.8333 4.30542C39.243 4.30542 39.5955 4.36788 39.8908 4.49279C40.1956 4.61769 40.4481 4.79065 40.6482 5.01164C40.8482 5.22303 40.9959 5.48245 41.0912 5.78992C41.196 6.08778 41.2484 6.40967 41.2484 6.75557C41.2484 7.49542 41.0293 8.08153 40.591 8.51391C40.1528 8.93668 39.5621 9.14807 38.819 9.14807ZM38.2903 12.1171V11.3388C38.2807 11.3388 38.2617 10.8295 38.2331 9.81105C38.2712 9.62849 38.3427 9.49397 38.4475 9.4075C38.5618 9.31141 38.6809 9.26337 38.8047 9.26337C38.9381 9.26337 39.0667 9.3018 39.1906 9.37867C39.3144 9.45554 39.4001 9.58045 39.4478 9.7534C39.4668 10.2723 39.4811 10.6614 39.4907 10.9208C39.5002 11.1706 39.5049 11.3004 39.5049 11.31V12.1027C40.2766 12.0834 40.9816 12.0546 41.6199 12.0162C42.2678 11.9681 42.8489 11.9057 43.3634 11.8288H43.4777C43.6777 11.8288 43.8254 11.8769 43.9207 11.9729C44.0255 12.069 44.0922 12.1699 44.1207 12.2756C44.1207 12.4774 44.0826 12.6311 44.0064 12.7368C43.9397 12.8425 43.8064 12.929 43.6063 12.9962C42.9489 13.0923 42.2201 13.1644 41.4199 13.2124C40.6291 13.2701 39.7526 13.2989 38.7904 13.2989C37.8187 13.2989 36.9517 13.2797 36.1896 13.2413C35.4369 13.2028 34.7748 13.1548 34.2032 13.0971C34.0412 13.0779 33.9079 13.0107 33.8031 12.8954C33.6983 12.7897 33.6459 12.6551 33.6459 12.4918C33.6459 12.3381 33.6935 12.2084 33.7888 12.1027C33.884 11.9874 34.0079 11.9201 34.1603 11.9009C35.456 12.045 36.8326 12.1171 38.2903 12.1171Z" fill="#454444"/>
<path d="M51.2802 6.15024L52.3377 7.2456C52.4997 7.40894 52.6712 7.5867 52.8522 7.77887C53.0332 7.97104 53.1999 8.1584 53.3524 8.34096C53.5143 8.52352 53.6429 8.70128 53.7382 8.87423C53.843 9.03757 53.8954 9.17689 53.8954 9.2922C53.8954 9.45554 53.8573 9.59967 53.7811 9.72457C53.7144 9.83988 53.5524 9.89753 53.2952 9.89753C53.1809 9.89753 53.0618 9.84948 52.9379 9.7534C52.8141 9.64771 52.6759 9.51799 52.5235 9.36426C52.3806 9.20092 52.2282 9.01836 52.0662 8.81658C51.9043 8.6148 51.7328 8.41783 51.5518 8.22566C51.3326 8.00467 51.1326 7.80769 50.9516 7.63474C50.7801 7.45218 50.6229 7.29845 50.48 7.17354C50.2513 7.40414 50.0513 7.61072 49.8798 7.79328C49.7083 7.97584 49.5368 8.16801 49.3653 8.36979C49.1938 8.57156 49.0128 8.79736 48.8223 9.04718C48.6413 9.297 48.4222 9.59967 48.1649 9.95518C48.022 10.157 47.8458 10.2578 47.6362 10.2578C47.3027 10.2002 47.117 10.008 47.0789 9.68134C47.0789 9.53721 47.1313 9.36426 47.2361 9.16248C47.3504 8.9511 47.4838 8.73971 47.6362 8.52833C47.7981 8.31694 47.9601 8.11997 48.1221 7.93741C48.2936 7.74524 48.4317 7.5915 48.5365 7.4762C48.727 7.26482 48.9319 7.04863 49.151 6.82763C49.3701 6.60664 49.6035 6.37123 49.8512 6.12141C49.5082 6.13102 49.1986 6.14063 48.9223 6.15024C48.6556 6.15024 48.4174 6.15985 48.2078 6.17906C47.9792 6.16946 47.822 6.1022 47.7362 5.97729C47.6505 5.84277 47.6076 5.70345 47.6076 5.55932C47.6076 5.40559 47.6505 5.28548 47.7362 5.199C47.8315 5.11253 47.9649 5.05007 48.1364 5.01164C48.3078 4.9636 48.5174 4.93958 48.7651 4.93958C49.0224 4.92997 49.3129 4.92516 49.6369 4.92516C50.399 4.92516 51.0278 4.92997 51.5232 4.93958C52.0186 4.94919 52.4092 4.97801 52.695 5.02605C52.9808 5.07409 53.1761 5.14616 53.2809 5.24224C53.3952 5.32872 53.4524 5.45843 53.4524 5.63138C53.4524 5.77551 53.4143 5.91483 53.3381 6.04935C53.2619 6.17426 53.0999 6.24152 52.8522 6.25113C52.6902 6.23191 52.4759 6.21269 52.2091 6.19348C51.9519 6.17426 51.6423 6.15985 51.2802 6.15024ZM50.5371 11.9729C51.4803 11.9633 52.333 11.9345 53.0951 11.8865C53.8573 11.8384 54.5385 11.7712 55.1387 11.6847H55.253C55.4531 11.6847 55.6007 11.7327 55.696 11.8288C55.8008 11.9249 55.8675 12.0258 55.8961 12.1315C55.8961 12.3333 55.8579 12.487 55.7817 12.5927C55.715 12.6984 55.5817 12.7849 55.3816 12.8521C54.7242 12.9482 53.9954 13.0203 53.1952 13.0683C52.4044 13.126 51.5279 13.1548 50.5657 13.1548C49.594 13.1548 48.727 13.1356 47.9649 13.0971C47.2122 13.0587 46.5501 13.0107 45.9785 12.953C45.8165 12.9338 45.6832 12.8713 45.5784 12.7656C45.4736 12.6503 45.4212 12.511 45.4212 12.3477C45.4212 12.1939 45.4688 12.0642 45.5641 11.9585C45.6594 11.8432 45.7832 11.776 45.9356 11.7568C47.2504 11.9009 48.646 11.9729 50.1227 11.9729H50.5371Z" fill="#454444"/>
<path d="M60.3547 3.74333C60.3356 3.83941 60.3261 3.92589 60.3261 4.00276C60.3261 4.07962 60.3261 4.15169 60.3261 4.21894C60.3261 4.41111 60.3451 4.57926 60.3832 4.72339C60.4309 4.86751 60.5023 5.0837 60.5976 5.37196L60.7262 5.63138C60.7453 5.6506 60.8501 5.66021 61.0406 5.66021H61.1978H61.4122C61.6027 5.66021 61.8456 5.6506 62.141 5.63138C62.4363 5.61217 62.7269 5.58815 63.0127 5.55932C63.2985 5.5305 63.551 5.50647 63.7701 5.48726C63.9987 5.45843 64.1321 5.43922 64.1702 5.42961C64.3131 5.40078 64.4322 5.38637 64.5275 5.38637C64.6894 5.38637 64.8228 5.44402 64.9276 5.55932C65.0324 5.66501 65.0848 5.81875 65.0848 6.02053C65.0848 6.16465 65.0514 6.27995 64.9848 6.36643C64.9276 6.4529 64.818 6.52497 64.6561 6.58262C64.4941 6.63066 64.275 6.6739 63.9987 6.71233C63.732 6.74116 63.3938 6.76998 62.9841 6.79881C62.4792 6.84685 62.0457 6.88048 61.6837 6.8997C61.3312 6.90931 61.0454 6.91411 60.8262 6.91411C60.55 6.91411 60.3404 6.88048 60.1975 6.81322C60.0546 6.73635 59.9402 6.64027 59.8545 6.52497C59.7688 6.40006 59.6878 6.25593 59.6116 6.09259C59.5449 5.91964 59.4544 5.73227 59.34 5.5305C59.321 5.49206 59.2734 5.37196 59.1971 5.17018C59.1209 4.95879 59.0828 4.6273 59.0828 4.17571C59.0638 4.14688 59.059 4.06521 59.0685 3.93069C59.0876 3.79617 59.1209 3.64724 59.1686 3.4839C59.2162 3.32056 59.2829 3.15721 59.3686 2.99387C59.4639 2.82092 59.5782 2.6912 59.7116 2.60473C59.7783 2.56629 59.8974 2.52786 60.0689 2.48943C60.2499 2.45099 60.4547 2.42217 60.6833 2.40295C60.9215 2.37413 61.1692 2.35491 61.4264 2.3453C61.6932 2.32608 61.9409 2.31167 62.1695 2.30206C62.3887 2.30206 62.6125 2.30687 62.8412 2.31648C63.0794 2.31648 63.2937 2.32128 63.4843 2.33089C63.6843 2.3405 63.8511 2.35011 63.9844 2.35971C64.1273 2.35971 64.2131 2.35971 64.2417 2.35971C64.4417 2.42697 64.5846 2.51825 64.6704 2.63355C64.7561 2.73925 64.799 2.85455 64.799 2.97946C64.799 3.12358 64.7466 3.2533 64.6418 3.3686C64.537 3.4839 64.3893 3.55596 64.1988 3.58479H62.8126C62.5268 3.57518 62.2553 3.57998 61.9981 3.5992C61.7504 3.60881 61.5169 3.61361 61.2978 3.61361H60.7691C60.7024 3.61361 60.6357 3.61842 60.569 3.62803C60.5023 3.62803 60.4356 3.63283 60.369 3.64244L60.3547 3.74333ZM63.0556 8.64363C63.8272 8.62441 64.5322 8.59558 65.1705 8.55715C65.8184 8.50911 66.3995 8.44665 66.914 8.36979H67.0283C67.2284 8.36979 67.376 8.41783 67.4713 8.51391C67.5761 8.61 67.6428 8.71089 67.6714 8.81658C67.6714 9.01836 67.6332 9.17209 67.557 9.27778C67.4903 9.38348 67.357 9.46995 67.1569 9.53721C66.4995 9.63329 65.7707 9.71016 64.9705 9.76781C64.1797 9.81586 63.3033 9.83988 62.341 9.83988C61.3693 9.83988 60.5023 9.82066 59.7402 9.78223C58.9875 9.74379 58.3254 9.69575 57.7538 9.6381C57.5918 9.61888 57.4585 9.55643 57.3537 9.45073C57.2489 9.33543 57.1965 9.19611 57.1965 9.03277C57.1965 8.87903 57.2441 8.74932 57.3394 8.64363C57.4347 8.52833 57.5585 8.46107 57.7109 8.44185C59.0066 8.58598 60.3832 8.65804 61.8409 8.65804V8.18242C61.8409 8.20164 61.8361 8.21125 61.8266 8.21125C61.8266 8.21125 61.8123 7.77406 61.7837 6.8997C61.8218 6.71714 61.8933 6.58262 61.9981 6.49614C62.1124 6.40006 62.2315 6.35202 62.3553 6.35202C62.603 6.35202 62.7745 6.4481 62.8698 6.64027C62.965 6.83244 63.0174 7.04382 63.027 7.27443C63.046 7.49542 63.046 7.702 63.027 7.89417C63.0174 8.08634 63.027 8.18242 63.0556 8.18242V8.1536V8.64363ZM65.8279 13.8983C65.8184 14.004 65.8041 14.1337 65.785 14.2875C65.766 14.4412 65.7279 14.5853 65.6707 14.7199C65.6231 14.8544 65.5516 14.9697 65.4563 15.0658C65.3611 15.1618 65.2325 15.2099 65.0705 15.2099C65.0229 15.2099 64.9657 15.2003 64.899 15.1811C64.8323 15.1715 64.7656 15.1474 64.6989 15.109C64.6418 15.0706 64.5894 15.0129 64.5418 14.9361C64.5036 14.8688 64.4846 14.7727 64.4846 14.6478C64.4846 14.5613 64.4989 14.4508 64.5275 14.3163L64.5703 14.0569C64.5894 13.9416 64.6037 13.8359 64.6132 13.7398C64.6323 13.6437 64.6466 13.5428 64.6561 13.4371C64.6751 13.3314 64.6894 13.2065 64.6989 13.0624C64.7085 12.9183 64.7132 12.7405 64.7132 12.5291C64.7132 12.3946 64.6894 12.2889 64.6418 12.2121C64.5942 12.1256 64.5275 12.0583 64.4417 12.0103C64.3655 11.9622 64.2798 11.9286 64.1845 11.9094C64.0892 11.8902 63.994 11.8758 63.8987 11.8662C63.6891 11.8565 63.4938 11.8469 63.3128 11.8373C63.1318 11.8181 62.9508 11.8037 62.7697 11.7941C62.5887 11.7845 62.403 11.7749 62.2124 11.7653C62.0219 11.7557 61.817 11.7509 61.5979 11.7509C61.1692 11.7509 60.7929 11.7557 60.469 11.7653C60.1451 11.7653 59.8688 11.7653 59.6401 11.7653C59.2686 11.7076 59.0828 11.5395 59.0828 11.2608C59.0828 11.1263 59.1209 10.987 59.1971 10.8429C59.2734 10.6891 59.3972 10.5834 59.5687 10.5258C59.9593 10.5258 60.3261 10.5354 60.6691 10.5546C61.0215 10.5642 61.3502 10.5738 61.6551 10.5834L63.7558 10.6411L64.2702 10.6843C64.4608 10.7035 64.6751 10.7516 64.9133 10.8284C65.161 10.9053 65.3658 11.0398 65.5278 11.232C65.7183 11.4722 65.8279 11.6836 65.8565 11.8662C65.8946 12.0391 65.9136 12.2361 65.9136 12.4571C65.9136 12.6589 65.9041 12.8798 65.8851 13.1201C65.866 13.3603 65.8469 13.6197 65.8279 13.8983Z" fill="#454444"/>
<path d="M38.8333 21.0014C39.2334 21.0014 39.524 20.9149 39.705 20.742C39.8955 20.569 39.9908 20.252 39.9908 19.7907C39.9908 19.4256 39.9098 19.1374 39.7479 18.926C39.5859 18.7146 39.2811 18.6089 38.8333 18.6089C38.4046 18.6089 38.1045 18.7146 37.933 18.926C37.7615 19.1374 37.6758 19.4256 37.6758 19.7907C37.6758 20.252 37.7758 20.569 37.9759 20.742C38.1855 20.9149 38.4713 21.0014 38.8333 21.0014ZM38.819 22.2265C38.0378 22.2265 37.4424 22.0103 37.0327 21.5779C36.6326 21.1455 36.4325 20.5546 36.4325 19.8052C36.4325 19.4977 36.4754 19.1998 36.5611 18.9116C36.6469 18.6137 36.785 18.3543 36.9755 18.1333C37.1661 17.9027 37.4138 17.7201 37.7186 17.5856C38.0235 17.4511 38.3951 17.3838 38.8333 17.3838C39.243 17.3838 39.5955 17.4463 39.8908 17.5712C40.1956 17.6961 40.4481 17.8691 40.6482 18.0901C40.8482 18.3014 40.9959 18.5609 41.0912 18.8683C41.196 19.1662 41.2484 19.4881 41.2484 19.834C41.2484 20.5738 41.0293 21.1599 40.591 21.5923C40.1528 22.0151 39.5621 22.2265 38.819 22.2265ZM38.0187 24.7919L37.9902 25.354C37.9711 25.5174 37.9616 25.7143 37.9616 25.9449C37.9711 26.1755 37.9616 26.3965 37.933 26.6079C37.9044 26.8193 37.8473 26.9971 37.7615 27.1412C37.6853 27.2949 37.5519 27.3718 37.3614 27.3718C37.228 27.3718 37.0851 27.3238 36.9327 27.2277C36.7898 27.1316 36.7183 26.973 36.7183 26.7521C36.7183 26.5022 36.7183 26.2668 36.7183 26.0458C36.7278 25.8248 36.7374 25.6135 36.7469 25.4117L36.7612 24.7631C36.2563 24.7439 35.7894 24.7199 35.3607 24.691C34.9415 24.6622 34.5557 24.6286 34.2032 24.5902C34.0412 24.5709 33.9079 24.5085 33.8031 24.4028C33.6983 24.2875 33.6459 24.1482 33.6459 23.9848C33.6459 23.8311 33.6935 23.7014 33.7888 23.5957C33.884 23.4804 34.0079 23.4131 34.1603 23.3939C35.475 23.538 36.8707 23.6101 38.3474 23.6101C39.3859 23.6101 40.3195 23.5861 41.1483 23.538C41.9867 23.49 42.7251 23.4179 43.3634 23.3218H43.4777C43.6777 23.3218 43.8254 23.3699 43.9207 23.466C44.0255 23.5621 44.0922 23.6629 44.1207 23.7686C44.1207 23.9704 44.0826 24.1242 44.0064 24.2298C43.9397 24.3355 43.8064 24.422 43.6063 24.4893C43.2443 24.5373 42.8537 24.5854 42.4345 24.6334C42.0153 24.6718 41.5723 24.7055 41.1055 24.7343L41.0626 25.6423C41.0435 25.8056 41.034 26.0026 41.034 26.2332C41.0435 26.4638 41.034 26.6848 41.0054 26.8962C40.9769 27.1076 40.9197 27.2853 40.834 27.4294C40.7577 27.5832 40.6244 27.6601 40.4338 27.6601C40.3004 27.6601 40.1575 27.612 40.0051 27.5159C39.8622 27.4198 39.7908 27.2613 39.7908 27.0403C39.7908 26.7905 39.7908 26.5551 39.7908 26.3341C39.8003 26.1131 39.8098 25.9017 39.8193 25.6999L39.8479 24.7775C39.6764 24.7871 39.5002 24.7919 39.3192 24.7919C39.1477 24.7919 38.9714 24.7919 38.7904 24.7919H38.0187Z" fill="#454444"/>
<path d="M47.3361 19.7763C47.1456 19.6514 47.0169 19.5361 46.9503 19.4304C46.8836 19.3151 46.8502 19.2046 46.8502 19.0989C46.8502 18.8972 46.9121 18.7482 47.036 18.6521C47.1694 18.5561 47.3027 18.508 47.4361 18.508C47.56 18.508 47.6791 18.5368 47.7934 18.5945C48.0792 18.6906 48.3221 18.7578 48.5222 18.7963C48.7223 18.8347 48.9604 18.8731 49.2367 18.9116C49.4463 18.9596 49.5892 19.0461 49.6654 19.171C49.7416 19.2863 49.7798 19.416 49.7798 19.5601C49.7607 19.7043 49.7083 19.8388 49.6226 19.9637C49.5463 20.079 49.4082 20.1367 49.2081 20.1367L48.2507 20.0502C48.1554 20.0406 48.0316 20.0117 47.8791 19.9637C47.7362 19.9157 47.5552 19.8532 47.3361 19.7763ZM49.0081 21.9671C49.1605 22.1977 49.3368 22.4763 49.5368 22.803C49.7369 23.1201 49.9274 23.4468 50.1084 23.7831C50.2894 24.1097 50.4419 24.4172 50.5657 24.7055C50.6896 24.9937 50.7515 25.2147 50.7515 25.3684C50.7515 25.5318 50.7229 25.6807 50.6658 25.8152C50.6086 25.9401 50.4466 26.0026 50.1799 26.0026C50.0465 26.0026 49.9322 25.9546 49.8369 25.8585C49.7416 25.7624 49.6464 25.6327 49.5511 25.4693C49.4654 25.306 49.3749 25.1186 49.2796 24.9072C49.1843 24.6959 49.0748 24.4749 48.9509 24.2443C48.8461 24.0425 48.7413 23.8599 48.6365 23.6966C48.5413 23.5236 48.4555 23.3699 48.3793 23.2354C48.2459 23.4468 48.1268 23.6485 48.022 23.8407C47.9268 24.0233 47.822 24.225 47.7076 24.446C47.6028 24.6574 47.4885 24.8928 47.3647 25.1523C47.2504 25.4117 47.1074 25.7143 46.936 26.0602C46.7931 26.262 46.6168 26.3629 46.4072 26.3629C46.0738 26.3053 45.888 26.1131 45.8499 25.7864C45.8499 25.6615 45.888 25.4934 45.9642 25.282C46.05 25.0706 46.1452 24.8544 46.25 24.6334C46.3643 24.4028 46.4787 24.1818 46.593 23.9704C46.7168 23.759 46.8169 23.5861 46.8931 23.4516C47.0265 23.2113 47.1694 22.9663 47.3218 22.7165C47.4742 22.4667 47.6362 22.2073 47.8077 21.9382C47.56 21.9478 47.3266 21.9574 47.1074 21.9671C46.8883 21.9671 46.6835 21.9767 46.493 21.9959C46.2643 21.9863 46.1071 21.919 46.0214 21.7941C45.9356 21.6596 45.8928 21.5203 45.8928 21.3761C45.8928 21.2128 45.9404 21.0879 46.0357 21.0014C46.1309 20.9149 46.2595 20.8525 46.4215 20.814C46.593 20.7756 46.7883 20.7564 47.0074 20.7564C47.2265 20.7468 47.4647 20.742 47.7219 20.742C48.2554 20.742 48.7175 20.7468 49.1081 20.7564C49.5082 20.766 49.8369 20.7948 50.0941 20.8429C50.3514 20.8813 50.5419 20.9486 50.6658 21.0446C50.7991 21.1407 50.8658 21.2752 50.8658 21.4482C50.8658 21.5923 50.8277 21.7316 50.7515 21.8662C50.6753 21.9911 50.5133 22.0583 50.2656 22.0679C50.1037 22.0487 49.9179 22.0295 49.7083 22.0103C49.5082 21.9911 49.2748 21.9767 49.0081 21.9671ZM53.7239 20.9726C53.7049 20.6075 53.681 20.2952 53.6525 20.0358C53.6239 19.7763 53.6096 19.5649 53.6096 19.4016C53.6096 19.0557 53.662 18.8155 53.7668 18.681C53.8716 18.5465 54.024 18.4792 54.2241 18.4792C54.4146 18.4792 54.5575 18.5705 54.6528 18.753C54.7481 18.926 54.81 19.1374 54.8386 19.3872C54.8767 19.6274 54.8957 19.8772 54.8957 20.1367C54.8957 20.3865 54.9005 20.5834 54.91 20.7276C54.9195 20.9774 54.9291 21.2176 54.9386 21.4482C54.9481 21.6788 54.9529 21.9046 54.9529 22.1256C54.9529 23.1441 54.9338 24.0137 54.8957 24.7343C54.8671 25.4549 54.8338 26.0314 54.7957 26.4638C54.7671 26.6848 54.6909 26.8385 54.567 26.925C54.4432 27.0211 54.3098 27.0691 54.1669 27.0691C54.005 27.0691 53.8668 27.0115 53.7525 26.8962C53.6382 26.7809 53.581 26.6127 53.581 26.3917L53.7096 23.7975C53.7287 23.6053 53.743 23.3939 53.7525 23.1633C53.762 22.9327 53.7668 22.6829 53.7668 22.4139C53.7668 21.9911 53.7525 21.5107 53.7239 20.9726Z" fill="#454444"/>
<path d="M60.3832 19.8484C60.7834 19.8484 61.0739 19.7619 61.255 19.589C61.4455 19.416 61.5408 19.0989 61.5408 18.6377C61.5408 18.2726 61.4598 17.9844 61.2978 17.773C61.1359 17.5616 60.831 17.4559 60.3832 17.4559C59.9545 17.4559 59.6544 17.5616 59.4829 17.773C59.3115 17.9844 59.2257 18.2726 59.2257 18.6377C59.2257 19.0989 59.3258 19.416 59.5258 19.589C59.7354 19.7619 60.0212 19.8484 60.3832 19.8484ZM60.369 21.0735C59.5877 21.0735 58.9923 20.8573 58.5826 20.4249C58.1825 19.9925 57.9825 19.4016 57.9825 18.6521C57.9825 18.3447 58.0253 18.0468 58.1111 17.7586C58.1968 17.4607 58.335 17.2013 58.5255 16.9803C58.716 16.7497 58.9637 16.5671 59.2686 16.4326C59.5735 16.2981 59.945 16.2308 60.3832 16.2308C60.7929 16.2308 61.1454 16.2933 61.4407 16.4182C61.7456 16.5431 61.9981 16.716 62.1981 16.937C62.3982 17.1484 62.5459 17.4079 62.6411 17.7153C62.7459 18.0132 62.7983 18.3351 62.7983 18.681C62.7983 19.4208 62.5792 20.0069 62.141 20.4393C61.7027 20.8621 61.1121 21.0735 60.369 21.0735ZM61.0549 23.1777C61.0549 23.3699 61.0406 23.5861 61.012 23.8263C60.993 24.0569 60.9834 24.3451 60.9834 24.691C60.9834 24.912 60.9215 25.0802 60.7977 25.1955C60.6738 25.3012 60.5452 25.354 60.4118 25.354C60.2784 25.354 60.1355 25.306 59.9831 25.2099C59.8402 25.1138 59.7688 24.9553 59.7688 24.7343C59.7688 24.3884 59.7735 24.1001 59.783 23.8695C59.8021 23.6293 59.8116 23.4083 59.8116 23.2065H59.4829C59.3019 23.2065 59.0733 23.2114 58.797 23.221C58.5207 23.2306 58.254 23.2162 57.9967 23.1777C57.7395 23.1393 57.5156 23.0672 57.3251 22.9615C57.1441 22.8558 57.0536 22.6925 57.0536 22.4715C57.0536 22.337 57.0964 22.2217 57.1822 22.1256C57.2775 22.0295 57.4013 21.9574 57.5537 21.9094C58.1254 21.9286 58.6255 21.9478 59.0542 21.9671C59.4829 21.9767 59.8354 21.9815 60.1117 21.9815C60.5404 21.9815 61.012 21.9719 61.5265 21.9526C62.0505 21.9238 62.6316 21.871 63.2699 21.7941H63.3556C63.5748 21.7941 63.732 21.8518 63.8272 21.9671C63.932 22.0824 63.994 22.1929 64.013 22.2985C64.013 22.5003 63.9749 22.6493 63.8987 22.7453C63.832 22.8318 63.6986 22.9087 63.4986 22.9759C63.0222 23.024 62.5792 23.0672 62.1695 23.1057C61.7694 23.1345 61.3979 23.1585 61.0549 23.1777ZM66.228 20.8717H65.442C65.2801 20.8717 65.1038 20.8765 64.9133 20.8861C64.7323 20.8957 64.5465 20.9101 64.356 20.9293C64.1559 20.9197 64.0082 20.8525 63.913 20.7276C63.8177 20.6027 63.7701 20.4777 63.7701 20.3528C63.7701 20.1895 63.8082 20.0598 63.8844 19.9637C63.9606 19.8676 64.0606 19.8004 64.1845 19.7619C64.3083 19.7139 64.4465 19.6851 64.5989 19.6754C64.7513 19.6658 64.9038 19.661 65.0562 19.661C65.161 19.661 65.2563 19.6658 65.342 19.6754C65.4278 19.6754 65.5468 19.6754 65.6993 19.6754C65.785 19.6754 65.8755 19.6754 65.9708 19.6754C66.0661 19.6754 66.1709 19.6706 66.2852 19.661V19.3728C66.2852 19.1326 66.2757 18.8876 66.2566 18.6377C66.2471 18.3879 66.228 18.1525 66.1994 17.9315C66.1804 17.7105 66.1613 17.5135 66.1423 17.3406C66.1328 17.1676 66.128 17.0379 66.128 16.9515C66.128 16.6056 66.1804 16.3653 66.2852 16.2308C66.39 16.0963 66.5424 16.029 66.7425 16.029C66.933 16.029 67.0759 16.1203 67.1712 16.3029C67.2665 16.4758 67.3284 16.6824 67.357 16.9226C67.3951 17.1532 67.4141 17.3934 67.4141 17.6433C67.4141 17.8835 67.4189 18.0756 67.4284 18.2198C67.457 18.9308 67.4713 19.5361 67.4713 20.0358C67.4713 20.4585 67.4713 20.8717 67.4713 21.2752C67.4713 21.6692 67.4475 22.0247 67.3998 22.3418C67.3617 22.6493 67.2903 22.8991 67.1855 23.0912C67.0807 23.2834 66.9235 23.3795 66.7139 23.3795C66.5519 23.3795 66.4138 23.3218 66.2995 23.2065C66.1852 23.0912 66.128 22.9231 66.128 22.7021L66.228 20.8717ZM62.5268 28.3086C62.2029 28.2318 61.9552 28.102 61.7837 27.9195C61.6217 27.7465 61.5027 27.5303 61.4264 27.2709C61.3598 27.0115 61.3169 26.7136 61.2978 26.3773C61.2788 26.041 61.2597 25.6711 61.2407 25.2676C61.2693 25.0754 61.3407 24.9313 61.455 24.8352C61.5789 24.7295 61.7123 24.6766 61.8552 24.6766C61.9981 24.6766 62.1171 24.7295 62.2124 24.8352C62.3172 24.9313 62.3982 25.061 62.4554 25.2243L62.5411 26.6223C62.5506 26.7953 62.6268 26.925 62.7697 27.0115C62.9222 27.1076 63.0984 27.1748 63.2985 27.2133C63.5081 27.2517 63.7272 27.2709 63.9558 27.2709C64.1845 27.2805 64.3941 27.2853 64.5846 27.2853C65.0705 27.2853 65.5278 27.2517 65.9565 27.1844C66.3852 27.1172 66.7663 27.0163 67.0997 26.8818C67.1569 26.8626 67.2093 26.8481 67.2569 26.8385C67.3141 26.8289 67.3665 26.8241 67.4141 26.8241C67.6047 26.8241 67.7476 26.8914 67.8428 27.0259C67.9476 27.17 68 27.3286 68 27.5015C68 27.6745 67.9 27.8234 67.6999 27.9483C67.5094 28.0732 67.2474 28.1789 66.914 28.2654C66.59 28.3519 66.209 28.4143 65.7707 28.4527C65.342 28.4912 64.8895 28.5104 64.4131 28.5104C64.0797 28.5104 63.7558 28.496 63.4414 28.4672C63.127 28.4383 62.8221 28.3855 62.5268 28.3086Z" fill="#454444"/>
<path d="M5.77738 15.4063C7.55002 15.4063 8.98702 13.9693 8.98702 12.1966C8.98702 10.424 7.55002 8.987 5.77738 8.987C4.00475 8.987 2.56775 10.424 2.56775 12.1966C2.56775 13.9693 4.00475 15.4063 5.77738 15.4063Z" fill="#454444"/>
<path d="M11.5547 10.2708C13.3274 10.2708 14.7644 8.83383 14.7644 7.0612C14.7644 5.28857 13.3274 3.85156 11.5547 3.85156C9.7821 3.85156 8.34509 5.28857 8.34509 7.0612C8.34509 8.83383 9.7821 10.2708 11.5547 10.2708Z" fill="#454444"/>
<path d="M19.2579 10.2708C21.0305 10.2708 22.4675 8.83383 22.4675 7.0612C22.4675 5.28857 21.0305 3.85156 19.2579 3.85156C17.4852 3.85156 16.0482 5.28857 16.0482 7.0612C16.0482 8.83383 17.4852 10.2708 19.2579 10.2708Z" fill="#454444"/>
<path d="M25.0352 15.4063C26.8078 15.4063 28.2448 13.9693 28.2448 12.1966C28.2448 10.424 26.8078 8.987 25.0352 8.987C23.2626 8.987 21.8256 10.424 21.8256 12.1966C21.8256 13.9693 23.2626 15.4063 25.0352 15.4063Z" fill="#454444"/>
<path d="M22.262 19.0781C21.1451 17.7685 20.2079 16.6516 19.0781 15.3421C18.4875 14.6488 17.73 13.9555 16.8313 13.6474C16.6901 13.596 16.5489 13.5575 16.4076 13.5318C16.0867 13.4805 15.74 13.4805 15.4062 13.4805C15.0724 13.4805 14.7258 13.4805 14.392 13.5447C14.2508 13.5703 14.1095 13.6089 13.9683 13.6602C13.0696 13.9683 12.325 14.6616 11.7216 15.3549C10.6046 16.6644 9.66741 17.7814 8.53762 19.0909C6.85577 20.7728 4.78877 22.6343 5.17392 25.2406C5.54624 26.5501 6.48346 27.8468 8.1653 28.2191C9.10252 28.4117 12.0939 27.6542 15.2779 27.6542H15.509C18.6929 27.6542 21.6843 28.3989 22.6215 28.2191C24.3034 27.8468 25.2406 26.5373 25.6129 25.2406C26.0109 22.6215 23.9439 20.7599 22.262 19.0781Z" fill="#454444"/>
</svg>
